<svg width="21" height="20" viewBox="0 0 21 20" fill="none" xmlns="http://www.w3.org/2000/svg">
<path d="M3.78571 2.99988H17.2251C18.5903 2.99988 19.5542 4.33727 19.1225 5.63233L17.4558 10.6323C17.1836 11.449 16.4193 11.9999 15.5585 11.9999H5.07142M3.78571 2.99988L3.74531 2.71703C3.60455 1.73174 2.76071 0.999878 1.76541 0.999878H1M3.78571 2.99988L5.07142 11.9999M5.07142 11.9999L5.25469 13.2827C5.39545 14.268 6.23929 14.9999 7.23459 14.9999H16M16 14.9999C14.8954 14.9999 14 15.8953 14 16.9999C14 18.1044 14.8954 18.9999 16 18.9999C17.1046 18.9999 18 18.1044 18 16.9999C18 15.8953 17.1046 14.9999 16 14.9999ZM10 16.9999C10 18.1044 9.10457 18.9999 8 18.9999C6.89543 18.9999 6 18.1044 6 16.9999C6 15.8953 6.89543 14.9999 8 14.9999C9.10457 14.9999 10 15.8953 10 16.9999Z" stroke="#DD1923" stroke-width="1.71774" stroke-linecap="round" stroke-linejoin="round"/>
</svg>
