<svg width="21" height="22" viewBox="0 0 21 22" fill="none" xmlns="http://www.w3.org/2000/svg">
<path d="M12.9953 17.4171C14.383 18.185 15.6034 17.2544 15.338 15.6257L14.8614 12.7015L16.8801 10.6305C18.0028 9.47877 17.539 7.9696 15.9853 7.73198L13.1955 7.30534L11.9541 4.65795C11.2587 3.175 9.74887 3.15905 9.05217 4.64479L7.80458 7.30534L5.01487 7.73198C3.46335 7.96926 2.99575 9.47714 4.12002 10.6305L6.13867 12.7015L5.66214 15.6257C5.39711 17.2521 6.61519 18.1861 8.00487 17.4171L10.5001 16.0365L12.9953 17.4171Z" fill="#FFBA00"/>
<mask id="mask0_180_3320" style="mask-type:luminance" maskUnits="userSpaceOnUse" x="3" y="3" width="15" height="15">
<path d="M12.9953 17.4171C14.383 18.185 15.6034 17.2544 15.338 15.6257L14.8614 12.7015L16.8801 10.6305C18.0028 9.47877 17.539 7.9696 15.9853 7.73198L13.1955 7.30534L11.9541 4.65795C11.2587 3.175 9.74887 3.15905 9.05217 4.64479L7.80458 7.30534L5.01487 7.73198C3.46335 7.96926 2.99575 9.47714 4.12002 10.6305L6.13867 12.7015L5.66214 15.6257C5.39711 17.2521 6.61519 18.1861 8.00487 17.4171L10.5001 16.0365L12.9953 17.4171Z" fill="white"/>
</mask>
<g mask="url(#mask0_180_3320)">
</g>
</svg>
